MoBL_ARMS_module2_4_allmuscles_shoulder_states	
version=1	
nRows=419	
nColumns=2	
inDegrees=yes	
	
# SIMM Motion File Header:	
name MoBL_ARMS_module2_4_allmuscles_shoulder_states	
datacolumns 2	
datarows 419	
otherdata 1	
range 1.638524775 2.53237314	
endheader	
time	shoulder_elv
1.638524775	36.82440341
1.640439076	36.78815631
1.642353377	36.75136621
1.644714799	36.70524124
1.647076222	36.65829616
1.64900346	36.61938022
1.650930699	36.57992072
1.653303312	36.53060187
1.655675925	36.48046468
1.657565694	36.43995072
1.659455462	36.39892008
1.661874261	36.3456553
1.664293061	36.2915497
1.666156891	36.24928943
1.668020721	36.20653132
1.670485948	36.1492169
1.672951174	36.09103458
1.674774212	36.04745444
1.676597249	36.00339947
1.679133142	35.94133256
1.681398804	35.8851041
1.683664466	35.828147
1.685651103	35.77759962
1.68763774	35.7264908
1.689624377	35.67481542
1.692201364	35.60694061
1.69424516	35.5524259
1.696288956	35.49730779
1.698332752	35.4415801
1.700798025	35.37354953
1.702825243	35.31693625
1.70485246	35.25971846
1.706879677	35.20188893
1.709378031	35.12977681
1.711411767	35.07038025
1.713445503	35.01036053
1.715479239	34.94971023
1.717967753	34.87463892
1.720000922	34.81259461
1.722034091	34.74991306
1.724067259	34.68658683
1.726560014	34.60806622
1.728594999	34.5432393
1.730629983	34.47776199
1.732664968	34.41162796
1.735157204	34.3297412
1.737193451	34.26210106
1.739229699	34.19380279
1.741265946	34.12484115
1.743758995	34.03950969
1.745796785	33.96902097
1.747834575	33.89787212
1.749872366	33.82605918
1.752365892	33.73728844
1.754405325	33.66394621
1.756444759	33.58994717
1.758484192	33.51528848
1.760978431	33.42309193
1.763019486	33.34691756
1.765060541	33.27009492
1.767101596	33.19262191
1.769596839	33.09703501
1.771639694	33.01806086
1.773682549	32.93844997
1.775725405	32.85820065
1.778221622	32.75928554
1.780266354	32.67755833
1.782311086	32.59520775
1.784355817	32.51223217
1.786853191	32.41005123
1.788899919	32.32562148
1.790946647	32.24058255
1.792993376	32.15493282
1.795491994	32.04955603
1.797540827	31.96247763
1.799589661	31.87480495
1.801638495	31.7865363
1.804138487	31.67803493
1.806189544	31.58836364
1.8082406	31.49811335
1.810291657	31.40728233
1.812793137	31.29573016
1.81484451	31.20361447
1.816895884	31.11093661
1.818947257	31.01769475
1.821446626	30.90333982
1.823499417	30.80880022
1.825552207	30.71371482
1.827604998	30.61808189
1.830108706	30.50071326
1.832163236	30.40380213
1.834217765	30.30636192
1.836272294	30.20839104
1.838781188	30.08804637
1.840836983	29.98885543
1.842892778	29.88915307
1.844948572	29.788938
1.847464817	29.66559221
1.849521786	29.56419983
1.851578756	29.46231493
1.853635725	29.35993628
1.856159156	29.23367967
1.858219086	29.13007328
1.860279017	29.02599258
1.862338948	28.92143646
1.864867541	28.79245546
1.866927266	28.68687194
1.868986992	28.58083372
1.871046717	28.4743395
1.873589029	28.34227803
1.875649777	28.23473197
1.877710525	28.12674973
1.879771273	28.01833012
1.882325888	27.88333316
1.884387091	27.7739308
1.886448295	27.66411162
1.888509498	27.55387457
1.891078656	27.41589918
1.893140409	27.30471471
1.895202162	27.19313274
1.897263915	27.08115224
1.899848419	26.94022966
1.901910613	26.82734802
1.903972807	26.71408848
1.906035002	26.60045011
1.908634272	26.45668947
1.910699262	26.34206067
1.912764253	26.2270729
1.914829243	26.11172527
1.917439605	25.96541227
1.919503904	25.84931037
1.921568202	25.73286992
1.923632501	25.61609016
1.926263546	25.46677059
1.928328575	25.34919928
1.930393604	25.23130972
1.932458633	25.1131013
1.935108411	24.96096668
1.937175076	24.84195788
1.939241741	24.72265097
1.941308406	24.60304523
1.943976376	24.44821121
1.946043603	24.32790953
1.948110829	24.20732955
1.950178055	24.08647026
1.952866028	23.92891451
1.954933531	23.80741618
1.957001034	23.68565769
1.959068537	23.56363766
1.96177925	23.40327279
1.963847577	23.28061778
1.965915905	23.15771877
1.967984232	23.03457378
1.970715629	22.87158553
1.972785571	22.7477901
1.974855514	22.62376548
1.976925456	22.49950985
1.979675689	22.33407197
1.981747179	22.20920227
1.983818669	22.08411823
1.985890159	21.95881806
1.988659797	21.79096299
1.99073329	21.66505422
1.992806783	21.53894711
1.995298495	21.3871405
1.997520268	21.25154856
1.999742041	21.11573716
2.001963814	20.97972003
2.004185587	20.84349521
2.00640736	20.70707651
2.008629133	20.57046263
2.010850906	20.43366782
2.013072679	20.29669278
2.015294452	20.15955364
2.017516225	20.02225381
2.019737999	19.88481015
2.021959772	19.74722691
2.024181545	19.60952048
2.026403318	19.47169699
2.028625091	19.33377373
2.030846864	19.19575952
2.033068637	19.05767188
2.03529041	18.91952032
2.037999751	18.75098862
2.039984454	18.62749354
2.041969157	18.50398176
2.044621398	18.33890834
2.046974017	18.19248426
2.049326637	18.04606845
2.051442875	17.91439011
2.053559114	17.78273764
2.055675352	17.65112643
2.058346916	17.48504458
2.060268156	17.36566686
2.062189395	17.24634147
2.064631464	17.0947579
2.066660622	16.96888742
2.06868978	16.84310107
2.071195401	16.68790307
2.073054598	16.57284042
2.074913794	16.45786394
2.077313295	16.30960942
2.079712795	16.16151575
2.082112296	16.01359325
2.085737782	15.79043626
2.08706123	15.70908414
2.08885406	15.59897543
2.092578565	15.37060115
2.094230953	15.26944895
2.095883341	15.16840343
2.099087343	14.97278863
2.100640537	14.87811492
2.103266048	14.71831499
2.105456728	14.58521431
2.108427033	14.40509537
2.110453256	14.28246381
2.112479478	14.16003074
2.114505701	14.03780115
2.116531924	13.91577954
2.118558147	13.79397092
2.120584369	13.67237981
2.122610592	13.55101129
2.124636815	13.42986994
2.126663038	13.308961
2.12868926	13.18828922
2.130715483	13.06785993
2.132741706	12.94767806
2.134767929	12.82774908
2.136794152	12.70807808
2.138820374	12.58867066
2.140846597	12.46953208
2.14287282	12.35066808
2.144899043	12.2320841
2.146925265	12.11378691
2.148951488	11.99578446
2.150977711	11.87808398
2.153003934	11.76069127
2.155030156	11.6436123
2.157056379	11.52685274
2.159082602	11.41041857
2.161108825	11.29431555
2.163135047	11.17854975
2.16516127	11.06312701
2.167187493	10.94805348
2.169213716	10.8333351
2.171239938	10.71897805
2.173266161	10.60498836
2.175292384	10.49137226
2.177318607	10.37813586
2.179344829	10.26528543
2.181371052	10.15282715
2.183397275	10.04076734
2.185423498	9.929112248
2.18744972	9.817868212
2.189475943	9.70704155
2.191502166	9.596638664
2.193528389	9.486665894
2.195554611	9.377129553
2.197580834	9.268035877
2.199607057	9.159391026
2.20163328	9.051201053
2.203659502	8.943471954
2.205685725	8.836209747
2.207711948	8.729420384
2.209738171	8.623109812
2.211764393	8.517283803
2.213790616	8.411948097
2.215816839	8.307108211
2.217843062	8.2027697
2.219869285	8.098937962
2.221895507	7.99561853
2.22392173	7.892816729
2.225947953	7.790537974
2.227974176	7.688787401
2.230000398	7.587570157
2.232026621	7.486891159
2.234052844	7.3867555
2.236079067	7.287168067
2.238105289	7.188133978
2.240131512	7.089658004
2.242593493	6.970762105
2.244762592	6.866705628
2.246931692	6.763306677
2.249100792	6.660570626
2.251989755	6.524778711
2.253421174	6.457940068
2.25547709	6.362459248
2.258155606	6.2389863
2.260151116	6.147682203
2.262146625	6.056966166
2.264142134	5.966842237
2.266137643	5.87731409
2.268133153	5.788385798
2.270128662	5.70006101
2.272124171	5.612343825
2.27411968	5.525237908
2.27611519	5.438747441
2.278110699	5.352876172
2.280106208	5.267628421
2.282101717	5.18300808
2.284097227	5.099019615
2.286092736	5.015667024
2.288088245	4.932954924
2.290083754	4.850887466
2.292079264	4.769469404
2.294074773	4.688704969
2.296070282	4.608599041
2.298065791	4.529155984
2.300061301	4.450380784
2.30205681	4.372277843
2.304052319	4.294852226
2.306047828	4.218108421
2.308043338	4.142051546
2.310038847	4.066686073
2.312034356	3.992017174
2.314029865	3.918049397
2.316025375	3.844787958
2.318020884	3.772237379
2.320016393	3.700402906
2.322011902	3.629289107
2.324007412	3.558901228
2.326002921	3.489243745
2.32799843	3.420321891
2.329993939	3.352140164
2.331989449	3.284703785
2.333984958	3.218017155
2.335980467	3.152085507
2.337975976	3.086913281
2.339971486	3.022505629
2.341966995	2.95886686
2.343962504	2.896002663
2.345958013	2.833917983
2.347953523	2.772618224
2.349949032	2.712107474
2.351944541	2.652390787
2.35394005	2.593472114
2.35593556	2.53535647
2.357931069	2.478047561
2.359926578	2.421550389
2.361922087	2.365868557
2.363917597	2.311007059
2.365913106	2.256969232
2.367908615	2.203760057
2.369904124	2.151382781
2.371899634	2.099842312
2.373895143	2.049141651
2.375890652	1.999285618
2.377886161	1.950277164
2.379881671	1.902121004
2.38187718	1.854819873
2.383872689	1.808378409
2.385868198	1.762799285
2.387863708	1.718086982
2.389859217	1.674243954
2.392256727	1.622724525
2.394654237	1.572470574
2.396597673	1.532668006
2.398541108	1.493703517
2.401265554	1.440498678
2.402959679	1.408251428
2.40506383	1.369096647
2.407167982	1.330938688
2.409272133	1.29378117
2.411376285	1.257626807
2.413703038	1.218818832
2.416029792	1.181246502
2.418356546	1.144911404
2.42038459	1.114253231
2.422854231	1.078197393
2.425323871	1.043546685
2.427447302	1.014880116
2.429570733	0.987257577
2.431694164	0.960680924
2.433817594	0.9351522
2.435941025	0.910672907
2.438064456	0.887244721
2.440187887	0.864868944
2.442311317	0.843547069
2.444434748	0.823280015
2.446558179	0.804068813
2.449366367	0.780284903
2.450815229	0.768738702
2.452769957	0.753940378
2.455155301	0.737096077
2.457137692	0.724114245
2.459120083	0.712054079
2.461976142	0.696301301
2.464067023	0.685981253
2.466157905	0.676685865
2.468248787	0.668414362
2.470506898	0.660629834
2.47276501	0.654036834
2.474797233	0.649120135
2.476829456	0.645164831
2.479962311	0.640948372
2.481485719	0.639720042
2.483554566	0.638911884
2.48555391	0.639069447
2.487553254	0.640147839
2.489552597	0.642143908
2.492173197	0.646147208
2.494793796	0.651716576
2.496559663	0.656349936
2.498325529	0.661689098
2.500541391	0.669383822
2.502757254	0.678181686
2.504973116	0.688077284
2.507188978	0.699064256
2.509404841	0.711138187
2.511620703	0.724291081
2.513539797	0.736549628
2.51545889	0.749608075
2.517377984	0.763461315
2.520337596	0.786371711
2.523297209	0.811142099
2.52521488	0.828173675
2.527132551	0.845970909
2.530118117	0.87518708
2.53237314	0.898460622
